<?xml version="1.0" encoding="UTF-8"?>
<svg id="Layer_1" data-name="Layer 1" xmlns="http://www.w3.org/2000/svg" viewBox="0 0 94.95 117.56">
  <defs>
    <style>
      .cls-1 {
        fill: #fff;
      }
    </style>
  </defs>
  <path class="cls-1" d="m51.9,103.4c0,3.13.52,3.47,4.96,3.47s4.94-.34,4.94-3.47c0-2.24-.29-2.92-2.06-3.13,1.5-.21,1.76-.91,1.76-2.78,0-2.99-.48-3.47-4.64-3.47s-4.67.48-4.67,3.47c0,1.86.25,2.56,1.77,2.78-1.77.22-2.06.91-2.06,3.13Zm4.96-7.56c1.97,0,2.22.2,2.22,1.74s-.25,1.79-2.22,1.79-2.24-.2-2.24-1.79.25-1.74,2.24-1.74Zm0,5.36c2.24,0,2.51.21,2.51,1.97s-.27,1.88-2.51,1.88-2.53-.2-2.53-1.88.27-1.97,2.53-1.97Z"/>
  <path class="cls-1" d="m30.92,103.4c0,3.13.52,3.47,4.96,3.47s4.94-.34,4.94-3.47c0-2.24-.29-2.92-2.06-3.13,1.5-.21,1.76-.91,1.76-2.78,0-2.99-.48-3.47-4.64-3.47s-4.67.48-4.67,3.47c0,1.86.25,2.56,1.77,2.78-1.77.22-2.06.91-2.06,3.13Zm4.96-7.56c1.97,0,2.22.2,2.22,1.74s-.25,1.79-2.22,1.79-2.24-.2-2.24-1.79.25-1.74,2.24-1.74Zm0,5.36c2.24,0,2.51.21,2.51,1.97s-.27,1.88-2.51,1.88-2.53-.2-2.53-1.88.27-1.97,2.53-1.97Z"/>
  <path class="cls-1" d="m77.71,105.05c-2.17,0-2.36-.2-2.36-1.86l-2.42.14c0,3.12.45,3.53,4.78,3.55,4.24.02,4.76-.39,4.76-3.78s-.56-3.94-4.48-3.94c-1.15,0-1.88.07-2.45.22l.05-3.35h4.42l.14,1.43h1.97v-3.28h-8.78l-.11,7c1.34-.13,2.45-.22,4.17-.22,2.44,0,2.63.47,2.63,2.19s-.29,1.9-2.35,1.9Z"/>
  <path class="cls-1" d="m71.04,14.45c.17-.3.42-.69.66-1.06-.17-.43-.46-1.1-.62-1.13-.18-.04-.98,1.08-1.46,2.13.67-.04,1.16.02,1.42.06Z"/>
  <polygon class="cls-1" points="15.56 96.28 15.56 104.89 12.73 105 12.73 106.72 20.55 106.72 20.55 105 17.97 104.89 17.97 94.18 16.93 94.18 16.92 94.2 12.47 94.88 12.74 96.63 15.56 96.28"/>
  <path class="cls-1" d="m0,0v117.56h94.95V0H0Zm3.55,3.87h87.85v72.62l-1.15-1.65-3.32-2.76-4.98-2.87-2.44-.44-2.3-.44s-2.32-1.57-3.11-1.55c-.78.03-2.43,1.11-2.43,1.11l-1.89.07-.63.4c-.19-.77-.38-1.64-.38-1.65-.19-1-.42-2.28-.43-2.48-.01-.35-.24-1.85-.27-2.55-.02-.7-.56-2.59-.56-2.59l-.11-7.9c-.78.71-1.69,1.43-2.49,1.73,0,0-1.72,6.63-1.24,11.08.18.49.34.91.45,1.13.27.53.92,2.19,1.37,3.38h0c.13.33.34,1.01.47,1.44l-.23.11c-.14-.27-.3-.59-.45-.86-.37-.69-2.19-.36-2.55-.61-.26-.19-.34-.83-.36-1.15,0-.06,0-.12,0-.19h0c-.02-.28-.04-.54-.04-.54l.05-1.82s.1-10.85,1.25-14.91c0,0,0-.02,0-.03,0-.01,0-.02,0-.03h0c.02-.07.04-.13.06-.18,0,0,2.99.1,6.31-3.9,1-1.38,2.23-3.62,2.56-4.64.09-.27.17-.56.25-.85-.3-.85-.73-1.71-1.3-2.11,0,0,.93.02,1.59.21.01-.47-.03-.92-.16-1.33-.39-1.21.83-2.93,1.45-3.36.62-.43.59-1.53.57-1.88,0-.22-.19-.69-.28-1.22h0s-.69-2.13-.36-3.48c0,0-.02,1.87,1.69,2.12.13,0,.27.02.41.03h0c.7.07,1.44.22,1.88.28.98.14,1.42-1.33,1.42-1.33,0,0,.56-.49,1.24-1.15.67-.66.95-.91.81-1.72-.14-.81-4.38-3.97-4.38-3.97,0,0,0,0,0-.02-.87-.66-1.69-1.25-2.04-1.42,0,0,.62-.49,1.11-.2.43.25-.07.5.97,1.31.04-.39.06-1.03-.11-1.52-.2-.58-1.97-2.25-2.76-2.97l-.64,1.33.42-4.01c.04-1,.03-1.98-.15-2.43-.27-.65-.91.03-1.47.83h0c-.65,1.04-1.32,2.74-1.32,2.74,0,0-1.04-.08-2.02-.09,0,0,0,.01,0,.02-.35-.02-.88-.01-1.43.07-.06.01-.11.02-.15.02-.61.11-1.24.33-1.69.74-1.18,1.11-4.07,4.87-4.07,4.87,0,0-2.91,3.07-3.48,3.43-.57.37-1.4,1.39-3.07,1.85,0,0-.3.63-.39,1.15-.04.62.03,1.29.37,1.77,0,0-.51-.33-1.14-.71-1.97,1.38-7.16,4.27-7.66,4.61-.62.43-3.06,2.14-4.97,2.38,0,0-12.75,2.71-13.4,3.84-2.89,1.26-3.75,3.03-4.26,4.17-.59,1.3-2.12,5.6-3.76,8.56-1.64,2.96-7.16,6.06-7.95,6.73-.79.67-1.9.47-.45,1.93,1.45,1.46,5.09.92,7.73.07.11-.04.23-.08.34-.13.13-.08.29-.17.5-.24.35-.19.71-.42,1.06-.67,1.48-1.37,2.46-4.05,2.46-4.05-.09-.17-.18-.35-.27-.55-.33-.82-.69-2.45.54-4.1-.13,1.82.24,3.61,1.76,4.79.68.37.84,1.11.84,1.11.54,2.09-1,4.49-2.47,5.76-1.05.91-1.11,1.08-1.01,2.1.01.03,2.96,8.9,2.09,12.11l-1.74.52s.8-5.59-.19-9.98c-.03.94-.15,2.03-.27,3.1,0,0-.58,4.64-1.16,5.57-.21.34-.19.99-.07,1.67l-2.22.69s-3.1,1.07-3.53,1.2c-.43.13-2.26.1-2.26.1,0,0-2.87.06-3.39.12-.52.06-2.75,1.19-2.75,1.19l-1.91.07-2.38.81V3.87Zm55.55,67.69l-1.8.8-5.35,1.5-4.34.59s-3.13.2-4.02-.38c-.89-.58-3.76-.3-4.02-.29-.26,0-2.33.6-3.88,1.1-.47.15-.99.32-1.5.5-.78-.54-2.53-1.56-4.79-1.72,0,0-.25-.4-.33-1.09-.08-.7-.45-6.14-.26-7.37.19-1.23,3.26-3.19,5.91-5.44,2.65-2.24,3.25-5.11,3.25-5.11,0,0,.77-1.3,1.57-1.74.8-.44,3.19-.06,4.9.64,1.71.7,10.98.13,10.98.13,0,1.45,1.38,7.85,1.85,9.52.3,1.08.85,3.43,1.22,4.99.36,1.51.58,3.15.61,3.39Zm32.3,42.42H3.55v-27.36h87.85v27.36Z"/>
</svg>